<svg width="22" height="22" viewBox="0 0 22 22" fill="none" xmlns="http://www.w3.org/2000/svg">
<path fill-rule="evenodd" clip-rule="evenodd" d="M20.25 11C20.25 5.89137 16.1086 1.75 11 1.75C5.89137 1.75 1.75 5.89137 1.75 11C1.75 16.1086 5.89137 20.25 11 20.25C16.1086 20.25 20.25 16.1086 20.25 11ZM11 0.25C16.9371 0.25 21.75 5.06294 21.75 11C21.75 16.9371 16.9371 21.75 11 21.75C5.06294 21.75 0.25 16.9371 0.25 11C0.25 5.06294 5.06294 0.25 11 0.25Z" fill="white"/>
<path fill-rule="evenodd" clip-rule="evenodd" d="M11 14.5607L6.46967 10.0303L7.53033 8.96967L11 12.4393L14.4697 8.96967L15.5303 10.0303L11 14.5607Z" fill="white"/>
</svg>
